<svg xmlns="http://www.w3.org/2000/svg" xmlns:xlink="http://www.w3.org/1999/xlink" width="500" zoomAndPan="magnify" viewBox="0 0 375 374.999991" height="500" preserveAspectRatio="xMidYMid meet" version="1.0"><path fill="#3bb0ff" d="M 245.179688 194.800781 L 245.179688 123.527344 L 129.675781 123.527344 L 129.675781 194.800781 C 129.675781 198.46875 126.726562 201.488281 122.984375 201.488281 L 89.972656 201.488281 C 86.304688 201.488281 83.285156 198.539062 83.285156 194.800781 L 83.285156 93.03125 C 83.285156 91.375 83.933594 89.792969 85.15625 88.570312 L 94.648438 79.078125 C 95.800781 77.925781 97.382812 77.207031 99.109375 77.207031 L 275.675781 77.207031 C 277.332031 77.207031 278.914062 77.855469 280.136719 79.078125 L 289.628906 88.570312 C 290.78125 89.722656 291.5 91.304688 291.5 93.03125 L 291.5 194.800781 C 291.5 198.46875 288.550781 201.488281 284.808594 201.488281 L 251.796875 201.488281 C 248.203125 201.488281 245.179688 198.46875 245.179688 194.800781 Z M 322.570312 0.0351562 L 52.289062 0.0351562 C 46.171875 0.0351562 40.347656 2.480469 36.03125 6.796875 L 6.832031 35.996094 C 2.515625 40.3125 0.0703125 46.136719 0.0703125 52.25 L 0.0703125 322.605469 C 0.0703125 328.71875 2.515625 334.542969 6.832031 338.859375 L 36.03125 368.058594 C 40.347656 372.375 46.171875 374.820312 52.289062 374.820312 L 123.058594 374.820312 C 126.726562 374.820312 129.746094 371.871094 129.746094 368.132812 L 129.746094 241.476562 C 129.746094 237.808594 126.796875 234.789062 123.058594 234.789062 L 95.296875 234.789062 C 93.859375 234.789062 92.492188 235.363281 91.554688 236.371094 L 85.011719 242.914062 C 84.003906 243.921875 83.429688 245.289062 83.429688 246.65625 L 83.429688 328.503906 L 61.996094 328.503906 L 46.460938 312.96875 L 46.460938 61.960938 L 61.996094 46.425781 L 313.074219 46.425781 L 328.609375 61.960938 L 328.609375 313.039062 L 313.074219 328.574219 L 291.644531 328.574219 L 291.644531 246.726562 C 291.644531 245.289062 291.066406 243.921875 290.058594 242.988281 L 283.515625 236.441406 C 282.507812 235.4375 281.140625 234.859375 279.777344 234.859375 L 252.015625 234.859375 C 248.347656 234.859375 245.324219 237.808594 245.324219 241.550781 L 245.324219 368.273438 C 245.324219 371.941406 248.273438 374.964844 252.015625 374.964844 L 322.785156 374.964844 C 328.898438 374.964844 334.722656 372.519531 339.039062 368.203125 L 368.238281 339.003906 C 372.554688 334.6875 375 328.863281 375 322.75 L 375 52.25 C 375 46.136719 372.554688 40.3125 368.238281 35.996094 L 339.039062 6.796875 C 334.578125 2.480469 328.683594 0.0351562 322.570312 0.0351562 Z M 164.269531 368.203125 C 164.269531 371.871094 167.21875 374.890625 170.957031 374.890625 L 203.96875 374.890625 C 207.636719 374.890625 210.660156 371.941406 210.660156 368.203125 L 210.660156 169.050781 C 210.660156 167.613281 210.082031 166.175781 209.078125 165.167969 L 202.605469 158.695312 C 201.597656 157.6875 200.15625 157.113281 198.71875 157.113281 L 176.351562 157.113281 C 174.914062 157.113281 173.476562 157.6875 172.46875 158.695312 L 165.996094 165.167969 C 164.988281 166.175781 164.414062 167.613281 164.414062 169.050781 L 164.414062 368.203125 Z M 164.269531 368.203125 " fill-opacity="1" fill-rule="nonzero"/><path fill="#000814" d="M 245.179688 123.527344 L 129.675781 123.527344 L 129.675781 115.902344 L 245.253906 115.902344 L 245.253906 123.527344 Z M 122.984375 193.792969 L 89.972656 193.792969 C 86.304688 193.792969 83.285156 190.84375 83.285156 187.105469 L 83.285156 194.726562 C 83.285156 198.394531 86.234375 201.417969 89.972656 201.417969 L 122.984375 201.417969 C 126.652344 201.417969 129.675781 198.46875 129.675781 194.726562 L 129.675781 187.105469 C 129.675781 190.84375 126.652344 193.792969 122.984375 193.792969 Z M 312.929688 38.730469 L 61.925781 38.730469 L 46.390625 54.265625 L 46.390625 61.890625 L 61.925781 46.355469 L 313.003906 46.355469 L 328.539062 61.890625 L 328.539062 54.265625 Z M 122.984375 367.195312 L 52.214844 367.195312 C 46.101562 367.195312 40.277344 364.75 35.960938 360.4375 L 6.761719 331.234375 C 2.445312 326.921875 0 321.09375 0 314.980469 L 0 322.605469 C 0 328.71875 2.445312 334.542969 6.761719 338.859375 L 35.960938 368.058594 C 40.277344 372.375 46.101562 374.820312 52.214844 374.820312 L 122.984375 374.820312 C 126.652344 374.820312 129.675781 371.871094 129.675781 368.132812 L 129.675781 360.507812 C 129.675781 364.246094 126.652344 367.195312 122.984375 367.195312 Z M 203.898438 367.195312 L 170.886719 367.195312 C 167.21875 367.195312 164.199219 364.246094 164.199219 360.507812 L 164.199219 368.132812 C 164.199219 371.800781 167.144531 374.820312 170.886719 374.820312 L 203.898438 374.820312 C 207.566406 374.820312 210.585938 371.871094 210.585938 368.132812 L 210.585938 360.507812 C 210.585938 364.246094 207.636719 367.195312 203.898438 367.195312 Z M 338.894531 360.507812 C 334.578125 364.824219 328.753906 367.269531 322.640625 367.269531 L 251.871094 367.269531 C 248.203125 367.269531 245.179688 364.320312 245.179688 360.578125 L 245.179688 368.203125 C 245.179688 371.871094 248.128906 374.890625 251.871094 374.890625 L 322.640625 374.890625 C 328.753906 374.890625 334.578125 372.445312 338.894531 368.132812 L 368.09375 338.929688 C 372.410156 334.617188 374.855469 328.789062 374.855469 322.675781 L 374.855469 315.054688 C 374.855469 321.167969 372.410156 326.992188 368.09375 331.308594 Z M 251.871094 201.488281 L 284.882812 201.488281 C 288.550781 201.488281 291.570312 198.539062 291.570312 194.800781 L 291.570312 187.175781 C 291.570312 190.84375 288.621094 193.863281 284.882812 193.863281 L 251.871094 193.863281 C 248.203125 193.863281 245.179688 190.917969 245.179688 187.175781 L 245.179688 194.800781 C 245.179688 198.46875 248.203125 201.488281 251.871094 201.488281 Z M 251.871094 201.488281 " fill-opacity="1" fill-rule="nonzero"/></svg>